<svg t="1632668116395" class="icon" viewBox="0 0 1024 1024" version="1.1" xmlns="http://www.w3.org/2000/svg" p-id="14204" width="200" height="200"><path d="M917.333333 484.266667c23.466667 0 42.666667-19.2 42.666667-42.666667v-196.266667c0-23.466667-19.2-42.666667-42.666667-42.666666h-157.866666C740.266667 123.733333 667.733333 64 582.4 64c-85.333333 0-157.866667 59.733333-177.066667 140.8h-157.866666c-23.466667 0-42.666667 19.2-42.666667 42.666667V405.333333c-81.066667 19.2-140.8 89.6-140.8 177.066667s59.733333 157.866667 140.8 177.066667V917.333333c0 23.466667 19.2 42.666667 42.666667 42.666667h196.266666c23.466667 0 42.666667-19.2 42.666667-42.666667 0-53.333333 42.666667-98.133333 98.133333-98.133333s98.133333 42.666667 98.133334 98.133333c0 23.466667 19.2 42.666667 42.666666 42.666667h192c23.466667 0 42.666667-19.2 42.666667-42.666667v-196.266666c0-23.466667-19.2-42.666667-42.666667-42.666667-53.333333 0-98.133333-42.666667-98.133333-98.133333s44.8-96 98.133333-96z m-42.666666 275.2V874.666667h-115.2c-19.2-81.066667-91.733333-140.8-177.066667-140.8-85.333333 0-157.866667 59.733333-177.066667 140.8h-115.2v-153.6c0-23.466667-19.2-42.666667-42.666666-42.666667-53.333333 0-98.133333-42.666667-98.133334-98.133333s42.666667-98.133333 98.133334-98.133334c23.466667 0 42.666667-19.2 42.666666-42.666666v-153.6h153.6c23.466667 0 42.666667-19.2 42.666667-42.666667 0-53.333333 42.666667-98.133333 98.133333-98.133333s98.133333 42.666667 98.133334 98.133333c0 23.466667 19.2 42.666667 42.666666 42.666667h149.333334V405.333333c-81.066667 19.2-140.8 91.733333-140.8 177.066667s59.733333 157.866667 140.8 177.066667z" p-id="14205"></path></svg>
