<?xml version="1.0" standalone="no"?><!DOCTYPE svg PUBLIC "-//W3C//DTD SVG 1.1//EN" "http://www.w3.org/Graphics/SVG/1.1/DTD/svg11.dtd"><svg t="1652253342207" class="icon" viewBox="0 0 1024 1024" version="1.1" xmlns="http://www.w3.org/2000/svg" p-id="2125" xmlns:xlink="http://www.w3.org/1999/xlink" width="200" height="200"><defs><style type="text/css"></style></defs><path d="M377.556463 13.931973C241.023129 50.155102 121.904762 145.589116 55.727891 272.370068 15.32517 349.692517 0 416.565986 0 512c0 148.37551 43.885714 257.044898 146.285714 358.748299 102.4 102.4 198.530612 144.892517 341.333334 151.161905 66.176871 2.786395 90.557823 1.393197 142.106122-11.145578 179.02585-43.189116 317.64898-172.756463 375.466667-352.478912 13.235374-41.795918 15.32517-63.390476 14.628571-149.768707 0-89.861224-2.089796-107.27619-18.808163-156.734694-27.167347-81.502041-63.390476-138.623129-130.263946-205.496599-68.266667-68.963265-139.319728-110.062585-227.091156-132.353741C571.210884-4.87619 448.609524-4.87619 377.556463 13.931973z m134.443537 209.67619c22.987755 4.179592 53.638095 13.931973 68.963265 21.594558 45.97551 23.684354 98.220408 78.019048 119.814966 126.084354 17.414966 36.919728 20.201361 52.244898 20.201361 105.882993 0 56.42449-2.089796 67.570068-22.987755 110.759184-11.842177 25.77415-22.291156 54.334694-22.291157 62.693877 0.696599 34.829932 39.706122 57.121088 73.839456 42.492517 47.368707-19.504762 39.706122-82.198639-13.235374-103.793197-14.628571-5.572789 10.44898-18.111565 38.312925-18.111565 19.504762 0 29.257143 4.87619 43.189116 21.594558 9.752381 11.842177 18.111565 27.167347 18.111564 34.133334 0 6.965986 8.359184 16.021769 20.89796 20.897959 39.009524 16.021769 52.941497 73.839456 23.684353 97.523809-7.662585 6.965986-10.44898 5.572789-13.931973-4.179592-7.662585-25.077551-14.628571-34.133333-34.133333-43.885714-22.987755-11.145578-41.795918-3.482993-97.523809 41.09932-58.514286 47.368707-98.220408 59.210884-195.744218 59.210884H454.878912l-59.210885-29.257143c-44.582313-22.291156-68.963265-40.402721-96.130612-68.963265-174.14966-191.564626-83.591837-464.631293 160.914286-482.742857 5.572789 0 29.257143 2.786395 51.548299 6.965986z" p-id="2126"></path></svg>