<svg t="1632130915330" class="icon" viewBox="0 0 1024 1024" version="1.1" xmlns="http://www.w3.org/2000/svg" p-id="5107" width="200" height="200"><path d="M376.2 450.2c22.1 30.8 46.6 59.2 68.9 80 36.7 34.2 56.6 38.2 68.4 38.2 11.8 0 31.7-4 68.4-38.2 22.3-20.8 46.7-49.2 68.9-80 24.5-34.1 45.2-69.7 60-103 17.9-40.3 27-76.8 27-108.3 0-123.6-100.6-224.2-224.2-224.2S289.3 115.3 289.3 239c0 31.6 9.1 68 26.9 108.3 14.8 33.3 35.6 68.9 60 102.9zM513.5 72.5C605.3 72.5 680 147.2 680 239c0 43.1-26.7 107-71.5 171.1-42.7 61-81.6 94.3-95 100.1-13.4-5.8-52.3-39.1-95-100.1C373.8 346 347 282.1 347 239c0-91.8 74.7-166.5 166.5-166.5z" fill="" p-id="5108"></path><path d="M514.2 238.4m-75.8 0a75.8 75.8 0 1 0 151.6 0 75.8 75.8 0 1 0-151.6 0Z" p-id="5109"></path><path d="M981.8 823.5l-70.2-196.2c-25.6-77.1-97.3-126.9-182.8-126.9h-11.7l-8.4 8.1c-0.6 0.5-57.2 55.3-101.5 95.6-43.6 39.7-59.5 52.7-74.1 60.5-8.4 4.4-32 3.7-39.4-0.1-7.6-3.9-26.7-17.7-74.3-60.8-35.5-32.2-100.1-94.5-100.8-95.1l-8.4-8.1h-11.7c-85.3 0-157 49.7-182.7 126.7L45.6 822.7l-0.2 0.7c-7.6 23-3.7 48.4 10.5 68.1 14.2 19.6 37.1 31.4 61.3 31.4h1.4l275.1-26.4c37.7 0 39.7 0.3 63.4 16.3l71.4 68.6 2.9 1.7c29.9 17.6 63.6 26.6 97.6 26.6 21 0 42.1-3.4 62.4-10.4l210.9-72.2c7.7-2.6 16.1-4.4 22.6-5.7 21.1-4.2 39.6-17.4 50.5-36.1 10.8-18.7 13.1-41.2 6.4-61.8z m-56.4 32.7c-2.6 4.5-6.9 7.6-11.9 8.6-8.2 1.6-19.1 4-30 7.7l-210.9 72.2c-36.2 12.4-75.8 8.8-109.2-9.7l-70-67.3-2.1-1.4c-37.9-25.5-49.7-27.5-99.1-27.5h-1.4L116 865.1c-7.6-0.4-11.9-5.3-13.4-7.4-1.6-2.2-5-8.1-2.6-15.8l70.3-195.6 0.2-0.7c16.5-49.8 61.7-83.1 116.8-87 19.1 18.4 64.6 62 93.3 87.9 43.7 39.6 70.4 61 86.6 69.3 22.2 11.5 65.8 14.3 93-0.1 21.3-11.3 41.1-27.8 86-68.8 34.4-31.3 76-71.1 93.8-88.3 55.2 4 100.3 37.3 116.8 87.2L927 841.9c2.1 6.5-0.1 11.7-1.6 14.3z" fill="" p-id="5110"></path></svg>
